<svg width="100" height="100" viewBox="0 0 100 100" fill="none" xmlns="http://www.w3.org/2000/svg">
  <!-- Bao bun base -->
  <ellipse cx="50" cy="65" rx="35" ry="25" fill="#F5DEB3" stroke="#8B7355" stroke-width="2"/>

  <!-- Bao bun top pleats -->
  <path d="M20 45 Q30 40 40 45 Q50 40 60 45 Q70 40 80 45 Q70 50 60 55 Q50 50 40 55 Q30 50 20 45Z" fill="#F5DEB3" stroke="#8B7355" stroke-width="2"/>

  <!-- Top knot -->
  <circle cx="50" cy="42" r="6" fill="#F5DEB3" stroke="#8B7355" stroke-width="2"/>

  <!-- Face -->
  <!-- Eyes -->
  <circle cx="42" cy="55" r="3" fill="#2C2416"/>
  <circle cx="58" cy="55" r="3" fill="#2C2416"/>

  <!-- Eye highlights -->
  <circle cx="43" cy="54" r="1" fill="white"/>
  <circle cx="59" cy="54" r="1" fill="white"/>

  <!-- Cheek blush -->
  <ellipse cx="35" cy="60" rx="4" ry="3" fill="#FFB6C1" opacity="0.6"/>
  <ellipse cx="65" cy="60" rx="4" ry="3" fill="#FFB6C1" opacity="0.6"/>

  <!-- Mouth -->
  <path d="M46 62 Q50 66 54 62" stroke="#2C2416" stroke-width="2" fill="none" stroke-linecap="round"/>

  <!-- Small dimple -->
  <circle cx="50" cy="68" r="1" fill="#D2B48C" opacity="0.5"/>

  <!-- Green herb garnish on top -->
  <path d="M48 38 Q46 35 44 38 Q46 36 48 38" fill="#90EE90"/>
  <path d="M52 38 Q54 35 56 38 Q54 36 52 38" fill="#90EE90"/>

  <!-- Steam lines -->
  <path d="M30 35 Q32 30 30 25" stroke="#E0E0E0" stroke-width="1.5" fill="none" stroke-linecap="round" opacity="0.7"/>
  <path d="M40 32 Q42 27 40 22" stroke="#E0E0E0" stroke-width="1.5" fill="none" stroke-linecap="round" opacity="0.7"/>
  <path d="M60 32 Q62 27 60 22" stroke="#E0E0E0" stroke-width="1.5" fill="none" stroke-linecap="round" opacity="0.7"/>
  <path d="M70 35 Q72 30 70 25" stroke="#E0E0E0" stroke-width="1.5" fill="none" stroke-linecap="round" opacity="0.7"/>
</svg>